<svg xmlns="http://www.w3.org/2000/svg" width="36" height="36" viewBox="0 0 36 36">
  <g id="Group_119" data-name="Group 119" transform="translate(-2298 -1513)">
    <g id="Group_88" data-name="Group 88" transform="translate(2035 948)">
      <g id="Group_85" data-name="Group 85">
        <circle id="Ellipse_3" data-name="Ellipse 3" cx="18" cy="18" r="18" transform="translate(263 565)" fill="#0a5bff"/>
        <g id="face-24px" transform="translate(269 571)">
          <path id="Path_21" data-name="Path 21" d="M0,0H24V24H0Z" fill="none"/>
          <path id="Path_22" data-name="Path 22" d="M9,11.75A1.25,1.25,0,1,0,10.25,13,1.25,1.25,0,0,0,9,11.75Zm6,0A1.25,1.25,0,1,0,16.25,13,1.25,1.25,0,0,0,15,11.75ZM12,2A10,10,0,1,0,22,12,10,10,0,0,0,12,2Zm0,18a8.011,8.011,0,0,1-8-8,8.108,8.108,0,0,1,.05-.86A10.062,10.062,0,0,0,9.26,5.77,9.974,9.974,0,0,0,17.42,10a9.76,9.76,0,0,0,2.25-.26A7.988,7.988,0,0,1,12,20Z" fill="#fff"/>
        </g>
      </g>
    </g>
  </g>
</svg>
