<svg xmlns="http://www.w3.org/2000/svg" width="50" height="50" viewBox="0 0 50 50">
  <g id="Group_4" data-name="Group 4" transform="translate(-99 -142)">
    <g id="Group_28" data-name="Group 28">
      <circle id="Ellipse_1" data-name="Ellipse 1" cx="25" cy="25" r="25" transform="translate(99 142)" fill="#efefef"/>
      <g id="smart_toy_black_24dp" transform="translate(106 149)">
        <g id="Group_1" data-name="Group 1">
          <rect id="Rectangle_2" data-name="Rectangle 2" width="36" height="36" fill="none"/>
        </g>
        <g id="Group_3" data-name="Group 3" transform="translate(1 2)">
          <g id="Group_2" data-name="Group 2">
            <path id="Path_3" data-name="Path 3" d="M30.364,13.421V10.158a3.19,3.19,0,0,0-3.091-3.263H22.636A4.764,4.764,0,0,0,18,2a4.764,4.764,0,0,0-4.636,4.895H8.727a3.19,3.19,0,0,0-3.091,3.263v3.263A4.764,4.764,0,0,0,1,18.316a4.764,4.764,0,0,0,4.636,4.895v6.526A3.19,3.19,0,0,0,8.727,33H27.273a3.19,3.19,0,0,0,3.091-3.263V23.211A4.764,4.764,0,0,0,35,18.316,4.764,4.764,0,0,0,30.364,13.421ZM27.273,29.737H8.727V10.158H27.273ZM13.364,19.947A2.451,2.451,0,1,1,15.682,17.5,2.382,2.382,0,0,1,13.364,19.947ZM24.955,17.5a2.322,2.322,0,1,1-2.318-2.447A2.382,2.382,0,0,1,24.955,17.5ZM11.818,23.211H24.182v3.263H11.818Z" transform="translate(-1 -2)" fill="#9c9c9c"/>
          </g>
        </g>
      </g>
    </g>
  </g>
</svg>
