<svg xmlns="http://www.w3.org/2000/svg" width="42.109" height="44.922" viewBox="0 0 42.109 44.922">
  <g id="Group_118" data-name="Group 118" transform="translate(-2681 -1333)">
    <g id="Group_72" data-name="Group 72" transform="translate(2596 1425.504)">
      <path id="Path_15" data-name="Path 15" d="M41.484-26.68a5.518,5.518,0,0,1,2.2.439,5.644,5.644,0,0,1,1.787,1.2,5.644,5.644,0,0,1,1.2,1.787,5.518,5.518,0,0,1,.439,2.2V-4.922a13.085,13.085,0,0,1-.479,3.545,13.487,13.487,0,0,1-1.348,3.193,13.3,13.3,0,0,1-2.08,2.7,13.3,13.3,0,0,1-2.7,2.08,13.487,13.487,0,0,1-3.193,1.348,13.085,13.085,0,0,1-3.545.479A13.348,13.348,0,0,1,31.377,8.2a14.3,14.3,0,0,1-2.314-.625,12.26,12.26,0,0,1-2.168-1.035A11.535,11.535,0,0,1,24.98,5.1q-1.328-1.23-2.588-2.471T19.844.137a3.517,3.517,0,0,1,.605,1.973,3.394,3.394,0,0,1-.273,1.357A3.506,3.506,0,0,1,18.3,5.332a3.464,3.464,0,0,1-1.367.273,11.606,11.606,0,0,1-4.639-.937A12.056,12.056,0,0,1,8.5,2.109a12.056,12.056,0,0,1-2.559-3.8A11.606,11.606,0,0,1,5-6.328a3.394,3.394,0,0,1,.273-1.357A3.538,3.538,0,0,1,6.025-8.8a3.508,3.508,0,0,1,1.123-.752,3.464,3.464,0,0,1,1.367-.273,3.283,3.283,0,0,1,1.23.234,5.211,5.211,0,0,1-1.279-1.689,4.788,4.788,0,0,1-.459-2.08,5.151,5.151,0,0,1,.244-1.582A4.227,4.227,0,0,1,9-16.328,7.5,7.5,0,0,1,8.125-18a5.307,5.307,0,0,1-.312-1.846,5.3,5.3,0,0,1,.313-1.807,5.812,5.812,0,0,1,.859-1.582,5.789,5.789,0,0,1,1.309-1.24,5.2,5.2,0,0,1,1.66-.762,5.288,5.288,0,0,1,.762-1.689,5.607,5.607,0,0,1,1.25-1.318,5.724,5.724,0,0,1,1.6-.85,5.539,5.539,0,0,1,1.816-.3,5.6,5.6,0,0,1,1.5.2,6.722,6.722,0,0,1,1.973-1.621,5.24,5.24,0,0,1,2.48-.566,5.49,5.49,0,0,1,1.65.254,5.569,5.569,0,0,1,1.494.723l.293-.469a3.835,3.835,0,0,1-.527-1,3.287,3.287,0,0,1-.2-1.113,3.464,3.464,0,0,1,.273-1.367,3.508,3.508,0,0,1,.752-1.123,3.538,3.538,0,0,1,1.113-.752A3.443,3.443,0,0,1,29.57-36.5a11.582,11.582,0,0,1,4.131.742A12.006,12.006,0,0,1,37.227-33.7a12.133,12.133,0,0,1,2.627,3.115,11.822,11.822,0,0,1,1.455,3.926.453.453,0,0,0,.088-.01A.453.453,0,0,1,41.484-26.68Z" transform="translate(80 -56)"/>
      <path id="Path_16" data-name="Path 16" d="M44.3-4.922V-21.055a2.778,2.778,0,0,0-.215-1.094,2.77,2.77,0,0,0-.6-.889,2.907,2.907,0,0,0-.889-.605,2.673,2.673,0,0,0-1.094-.225,2.742,2.742,0,0,0-1.1.225,2.875,2.875,0,0,0-.9.605,2.77,2.77,0,0,0-.6.889,2.778,2.778,0,0,0-.215,1.094v6.66l-3.73,3.652a6.023,6.023,0,0,0-1.377,2.051,6.349,6.349,0,0,0-.479,2.422,5.374,5.374,0,0,0,.322,1.934,7.867,7.867,0,0,0,.713,1.445,10.727,10.727,0,0,0,.713,1,1.143,1.143,0,0,1,.322.586.673.673,0,0,1-.215.488.673.673,0,0,1-.488.215A.533.533,0,0,1,34.2-.664a1.748,1.748,0,0,1-.215-.156,4.939,4.939,0,0,1-.947-1.1,8.051,8.051,0,0,1-.713-1.4,8.959,8.959,0,0,1-.449-1.514,7.345,7.345,0,0,1-.156-1.455,7.875,7.875,0,0,1,.576-2.959,6.96,6.96,0,0,1,1.689-2.49l3.73-3.594L25.332-27.754a2.776,2.776,0,0,0-.908-.605,2.8,2.8,0,0,0-1.084-.215A2.673,2.673,0,0,0,21.621-28a2.932,2.932,0,0,0-1,1.514l9.18,9.16a.694.694,0,0,1,.215.508.632.632,0,0,1-.215.488.73.73,0,0,1-.508.2.662.662,0,0,1-.488-.2l-9.434-9.434a2.776,2.776,0,0,0-.908-.605,2.8,2.8,0,0,0-1.084-.215,2.644,2.644,0,0,0-1.7.576,2.932,2.932,0,0,0-1,1.494L25.82-13.359a.694.694,0,0,1,.215.508.673.673,0,0,1-.215.488.673.673,0,0,1-.488.215.694.694,0,0,1-.508-.215L15.391-21.8a2.676,2.676,0,0,0-.9-.6,2.791,2.791,0,0,0-1.055-.205,2.8,2.8,0,0,0-1.729.566,2.716,2.716,0,0,0-1.006,1.5L21.855-9.395a.694.694,0,0,1,.215.508.66.66,0,0,1-.225.488.705.705,0,0,1-.5.215.673.673,0,0,1-.488-.215l-6.445-6.445a1.992,1.992,0,0,0-.693-.449,2.213,2.213,0,0,0-.811-.156,2.006,2.006,0,0,0-.811.166,2.26,2.26,0,0,0-.674.449,2.057,2.057,0,0,0-.459.664,2.006,2.006,0,0,0-.166.811,2.028,2.028,0,0,0,.625,1.484L26.836,2.988A7.847,7.847,0,0,0,28.33,4.121a10.758,10.758,0,0,0,1.729.82,10.584,10.584,0,0,0,1.846.5,10.791,10.791,0,0,0,1.865.166,10.2,10.2,0,0,0,4.1-.83,10.685,10.685,0,0,0,3.34-2.256A10.685,10.685,0,0,0,43.467-.82,10.2,10.2,0,0,0,44.3-4.922ZM16.934,2.813a.673.673,0,0,0,.488-.215.693.693,0,0,0-.488-1.191A7.524,7.524,0,0,1,13.926.8a7.7,7.7,0,0,1-2.451-1.66A7.9,7.9,0,0,1,9.824-3.32a7.524,7.524,0,0,1-.605-3.008.678.678,0,0,0-.205-.5.678.678,0,0,0-.5-.205.678.678,0,0,0-.5.205.678.678,0,0,0-.205.5,8.913,8.913,0,0,0,.713,3.555,9.181,9.181,0,0,0,1.953,2.9,9.318,9.318,0,0,0,2.9,1.963A8.809,8.809,0,0,0,16.934,2.813Zm12.637-36.5a.678.678,0,0,0-.5.205.678.678,0,0,0-.205.5.678.678,0,0,0,.205.5.678.678,0,0,0,.5.205,7.524,7.524,0,0,1,3.008.605,7.78,7.78,0,0,1,2.451,1.65,7.779,7.779,0,0,1,1.65,2.451,7.524,7.524,0,0,1,.605,3.008.678.678,0,0,0,.205.5.678.678,0,0,0,.5.205.678.678,0,0,0,.5-.205.678.678,0,0,0,.205-.5,8.761,8.761,0,0,0-.723-3.535,9.318,9.318,0,0,0-1.963-2.9,9.318,9.318,0,0,0-2.9-1.963A8.761,8.761,0,0,0,29.57-33.691ZM16.934-1.406a.678.678,0,0,0,.5-.205.678.678,0,0,0,.205-.5.678.678,0,0,0-.205-.5.678.678,0,0,0-.5-.205,3.443,3.443,0,0,1-1.377-.273,3.538,3.538,0,0,1-1.113-.752,3.538,3.538,0,0,1-.752-1.113,3.443,3.443,0,0,1-.273-1.377.678.678,0,0,0-.205-.5.678.678,0,0,0-.5-.205.678.678,0,0,0-.5.205.678.678,0,0,0-.205.5A4.748,4.748,0,0,0,12.4-4.414a5.011,5.011,0,0,0,1.055,1.563A5.011,5.011,0,0,0,15.02-1.8,4.748,4.748,0,0,0,16.934-1.406ZM29.57-29.492a.678.678,0,0,0-.5.205.678.678,0,0,0-.205.5.678.678,0,0,0,.205.5.678.678,0,0,0,.5.205,3.394,3.394,0,0,1,1.357.273,3.538,3.538,0,0,1,1.113.752,3.508,3.508,0,0,1,.752,1.123,3.464,3.464,0,0,1,.273,1.367.673.673,0,0,0,.215.488.673.673,0,0,0,.488.215.678.678,0,0,0,.5-.205.678.678,0,0,0,.205-.5,4.68,4.68,0,0,0-.391-1.9,5.166,5.166,0,0,0-1.055-1.562A4.959,4.959,0,0,0,31.475-29.1,4.68,4.68,0,0,0,29.57-29.492Z" transform="translate(80 -56)" fill="#ffc83d"/>
    </g>
  </g>
</svg>
