<svg xmlns="http://www.w3.org/2000/svg" width="15.13" height="14.5" viewBox="0 0 15.13 14.5">
  <g id="paper-plane" transform="translate(0 0)">
    <path id="Path_10" data-name="Path 10" d="M8.75,17.612v2.924a.473.473,0,0,0,.854.28l1.71-2.328Z" transform="translate(-3.234 -6.509)" fill="#545454"/>
    <path id="Path_11" data-name="Path 11" d="M14.932.088a.473.473,0,0,0-.493-.034L.254,7.461a.473.473,0,0,0,.066.867L4.263,9.676l8.4-7.181-6.5,7.829,6.609,2.259a.484.484,0,0,0,.153.025.472.472,0,0,0,.468-.4L15.125.543a.474.474,0,0,0-.194-.455Z" transform="translate(0 0)" fill="#545454"/>
  </g>
</svg>
