<svg version="1.2" baseProfile="tiny-ps" xmlns="http://www.w3.org/2000/svg" viewBox="0 0 20 20" width="20" height="20">
	<title>question-mark-draw-svg</title>
	<style>
		tspan { white-space:pre }
		.shp0 { fill: #ffffff } 
	</style>
	<g id="Layer">
		<path id="Layer" class="shp0" d="M16.43 5.67L16.43 5.62C16.43 2.14 13.67 0 9.74 0C7.47 0 5.67 0.64 4.22 1.63C3.38 2.21 3.31 3.47 3.92 4.28L4.37 4.87C4.99 5.68 6.09 5.76 6.98 5.27C7.79 4.82 8.62 4.58 9.39 4.58C10.68 4.58 11.4 5.14 11.4 6.05L11.4 6.07C11.4 7.22 10.3 8.87 7.2 9.14L7.09 9.26C7.03 9.32 7.11 10.19 7.26 11.2L7.38 12.02C7.53 13.03 8.38 13.85 9.27 13.85C10.16 13.85 10.96 13.46 11.05 12.99C11.14 12.52 11.21 12.13 11.21 12.13C14.18 11.41 16.43 9.04 16.43 5.67Z" />
		<path id="Layer" class="shp0" d="M8.4 15.4C7.38 15.4 6.56 16.22 6.56 17.24L6.56 18.1C6.56 19.12 7.38 19.95 8.4 19.95L9.98 19.95C11 19.95 11.83 19.12 11.83 18.1L11.83 17.24C11.83 16.22 11 15.4 9.98 15.4L8.4 15.4Z" />
	</g>
	<g id="Layer">
	</g>
	<g id="Layer">
	</g>
	<g id="Layer">
	</g>
	<g id="Layer">
	</g>
	<g id="Layer">
	</g>
	<g id="Layer">
	</g>
	<g id="Layer">
	</g>
	<g id="Layer">
	</g>
	<g id="Layer">
	</g>
	<g id="Layer">
	</g>
	<g id="Layer">
	</g>
	<g id="Layer">
	</g>
	<g id="Layer">
	</g>
	<g id="Layer">
	</g>
	<g id="Layer">
	</g>
</svg>