<svg version="1.2" baseProfile="tiny-ps" xmlns="http://www.w3.org/2000/svg" viewBox="0 0 24 24" width="22" height="22">
	<title>send-icon-blue-svg</title>
	<style>
		tspan { white-space:pre }
		.shp0 { fill: #ffffff } 
	</style>
	<g id="Group_14">
		<g id="Group_13">
			<path id="Path_6" class="shp0" d="M24 12C24 12.07 23.98 12.13 23.96 12.19C23.94 12.25 23.91 12.31 23.88 12.36C23.84 12.41 23.8 12.46 23.75 12.5C23.7 12.54 23.65 12.58 23.59 12.6L1.3 23.9C1.22 23.94 1.14 23.96 1.05 23.98C0.97 24 0.88 24 0.8 24C0.71 23.99 0.63 23.98 0.54 23.95C0.46 23.93 0.38 23.89 0.31 23.85C0.24 23.8 0.19 23.75 0.14 23.69C0.09 23.63 0.06 23.56 0.04 23.49C0.01 23.42 0 23.34 0 23.27C0.01 23.19 0.02 23.12 0.05 23.05L4.77 12.7L16.29 12.7C16.39 12.71 16.49 12.7 16.59 12.67C16.69 12.64 16.78 12.59 16.86 12.53C16.94 12.46 17.01 12.38 17.05 12.29C17.1 12.2 17.13 12.1 17.14 12C17.13 11.9 17.1 11.8 17.05 11.71C17.01 11.62 16.94 11.54 16.86 11.48C16.78 11.41 16.69 11.36 16.59 11.33C16.49 11.3 16.39 11.29 16.29 11.3L4.77 11.3L0.05 0.96C0.02 0.89 0.01 0.82 0.01 0.74C0 0.67 0.01 0.59 0.04 0.52C0.06 0.44 0.1 0.38 0.14 0.32C0.19 0.26 0.24 0.2 0.31 0.16C0.38 0.12 0.46 0.08 0.54 0.06C0.63 0.03 0.71 0.01 0.8 0.01C0.88 0 0.97 0.01 1.06 0.03C1.14 0.04 1.22 0.07 1.3 0.11L23.59 11.41C23.65 11.43 23.7 11.47 23.75 11.51C23.8 11.55 23.84 11.6 23.88 11.65C23.91 11.7 23.94 11.76 23.96 11.82C23.98 11.88 24 11.94 24 12L24 12Z" />
		</g>
	</g>
</svg>